<svg width="180" height="28" viewBox="0 0 180 28" fill="none" xmlns="http://www.w3.org/2000/svg">
<path d="M13.453 27.612C10.903 27.612 8.659 27.068 6.721 25.98C4.783 24.858 3.27 23.294 2.182 21.288C1.094 19.282 0.55 16.97 0.55 14.352C0.55 11.632 1.077 9.252 2.131 7.212C3.219 5.172 4.732 3.574 6.67 2.418C8.642 1.262 10.92 0.683998 13.504 0.683998C16.02 0.683998 18.213 1.245 20.083 2.367C21.953 3.489 23.398 5.002 24.418 6.906C25.438 8.776 25.948 10.884 25.948 13.23C25.948 13.57 25.948 13.944 25.948 14.352C25.948 14.76 25.914 15.185 25.846 15.627H4.936V11.7H19.777C19.709 9.83 19.08 8.368 17.89 7.314C16.7 6.226 15.221 5.682 13.453 5.682C12.195 5.682 11.039 5.971 9.985 6.549C8.931 7.127 8.098 7.994 7.486 9.15C6.874 10.272 6.568 11.7 6.568 13.434V14.913C6.568 16.511 6.857 17.888 7.435 19.044C8.047 20.2 8.863 21.084 9.883 21.696C10.937 22.274 12.11 22.563 13.402 22.563C14.83 22.563 16.003 22.257 16.921 21.645C17.873 21.033 18.57 20.217 19.012 19.197H25.234C24.758 20.795 23.976 22.24 22.888 23.532C21.8 24.79 20.457 25.793 18.859 26.541C17.261 27.255 15.459 27.612 13.453 27.612ZM38.2796 27.612C36.0016 27.612 34.0126 27.255 32.3126 26.541C30.6466 25.793 29.3206 24.773 28.3346 23.481C27.3826 22.155 26.8216 20.642 26.6516 18.942H32.7716C32.9416 19.656 33.2476 20.319 33.6896 20.931C34.1316 21.509 34.7266 21.968 35.4746 22.308C36.2566 22.648 37.1746 22.818 38.2286 22.818C39.2486 22.818 40.0816 22.682 40.7276 22.41C41.3736 22.104 41.8496 21.713 42.1556 21.237C42.4616 20.761 42.6146 20.251 42.6146 19.707C42.6146 18.891 42.3936 18.262 41.9516 17.82C41.5096 17.378 40.8636 17.038 40.0136 16.8C39.1976 16.528 38.2116 16.273 37.0556 16.035C35.8316 15.797 34.6416 15.508 33.4856 15.168C32.3636 14.794 31.3436 14.335 30.4256 13.791C29.5416 13.247 28.8276 12.55 28.2836 11.7C27.7736 10.85 27.5186 9.813 27.5186 8.589C27.5186 7.093 27.9096 5.75 28.6916 4.56C29.5076 3.37 30.6636 2.435 32.1596 1.755C33.6896 1.041 35.5086 0.683998 37.6166 0.683998C40.6086 0.683998 42.9886 1.381 44.7566 2.775C46.5586 4.135 47.6126 6.056 47.9186 8.538H42.1046C41.9346 7.586 41.4586 6.855 40.6766 6.345C39.8946 5.801 38.8576 5.529 37.5656 5.529C36.2396 5.529 35.2196 5.784 34.5056 6.294C33.8256 6.77 33.4856 7.416 33.4856 8.232C33.4856 8.742 33.6896 9.218 34.0976 9.66C34.5396 10.068 35.1686 10.425 35.9846 10.731C36.8006 11.003 37.8036 11.275 38.9936 11.547C40.8976 11.921 42.5806 12.363 44.0426 12.873C45.5046 13.383 46.6606 14.131 47.5106 15.117C48.3606 16.103 48.7856 17.497 48.7856 19.299C48.8196 20.931 48.3946 22.376 47.5106 23.634C46.6606 24.892 45.4536 25.878 43.8896 26.592C42.3256 27.272 40.4556 27.612 38.2796 27.612ZM61.405 27.612C59.127 27.612 57.138 27.255 55.438 26.541C53.772 25.793 52.446 24.773 51.46 23.481C50.508 22.155 49.947 20.642 49.777 18.942H55.897C56.067 19.656 56.373 20.319 56.815 20.931C57.257 21.509 57.852 21.968 58.6 22.308C59.382 22.648 60.3 22.818 61.354 22.818C62.374 22.818 63.207 22.682 63.853 22.41C64.499 22.104 64.975 21.713 65.281 21.237C65.587 20.761 65.74 20.251 65.74 19.707C65.74 18.891 65.519 18.262 65.077 17.82C64.635 17.378 63.989 17.038 63.139 16.8C62.323 16.528 61.337 16.273 60.181 16.035C58.957 15.797 57.767 15.508 56.611 15.168C55.489 14.794 54.469 14.335 53.551 13.791C52.667 13.247 51.953 12.55 51.409 11.7C50.899 10.85 50.644 9.813 50.644 8.589C50.644 7.093 51.035 5.75 51.817 4.56C52.633 3.37 53.789 2.435 55.285 1.755C56.815 1.041 58.634 0.683998 60.742 0.683998C63.734 0.683998 66.114 1.381 67.882 2.775C69.684 4.135 70.738 6.056 71.044 8.538H65.23C65.06 7.586 64.584 6.855 63.802 6.345C63.02 5.801 61.983 5.529 60.691 5.529C59.365 5.529 58.345 5.784 57.631 6.294C56.951 6.77 56.611 7.416 56.611 8.232C56.611 8.742 56.815 9.218 57.223 9.66C57.665 10.068 58.294 10.425 59.11 10.731C59.926 11.003 60.929 11.275 62.119 11.547C64.023 11.921 65.706 12.363 67.168 12.873C68.63 13.383 69.786 14.131 70.636 15.117C71.486 16.103 71.911 17.497 71.911 19.299C71.945 20.931 71.52 22.376 70.636 23.634C69.786 24.892 68.579 25.878 67.015 26.592C65.451 27.272 63.581 27.612 61.405 27.612ZM86.3153 27.612C83.7653 27.612 81.5213 27.068 79.5833 25.98C77.6453 24.858 76.1323 23.294 75.0443 21.288C73.9563 19.282 73.4123 16.97 73.4123 14.352C73.4123 11.632 73.9393 9.252 74.9933 7.212C76.0813 5.172 77.5943 3.574 79.5323 2.418C81.5043 1.262 83.7823 0.683998 86.3663 0.683998C88.8823 0.683998 91.0753 1.245 92.9453 2.367C94.8153 3.489 96.2603 5.002 97.2803 6.906C98.3003 8.776 98.8103 10.884 98.8103 13.23C98.8103 13.57 98.8103 13.944 98.8103 14.352C98.8103 14.76 98.7763 15.185 98.7083 15.627H77.7983V11.7H92.6393C92.5713 9.83 91.9423 8.368 90.7523 7.314C89.5623 6.226 88.0833 5.682 86.3153 5.682C85.0573 5.682 83.9013 5.971 82.8473 6.549C81.7933 7.127 80.9603 7.994 80.3483 9.15C79.7363 10.272 79.4303 11.7 79.4303 13.434V14.913C79.4303 16.511 79.7193 17.888 80.2973 19.044C80.9093 20.2 81.7253 21.084 82.7453 21.696C83.7993 22.274 84.9723 22.563 86.2643 22.563C87.6923 22.563 88.8653 22.257 89.7833 21.645C90.7353 21.033 91.4323 20.217 91.8743 19.197H98.0963C97.6203 20.795 96.8383 22.24 95.7503 23.532C94.6623 24.79 93.3193 25.793 91.7213 26.541C90.1233 27.255 88.3213 27.612 86.3153 27.612ZM100.891 27V1.296H106.297L106.756 5.58C107.538 4.084 108.66 2.894 110.122 2.01C111.584 1.126 113.318 0.683998 115.324 0.683998C117.398 0.683998 119.166 1.126 120.628 2.01C122.09 2.86 123.212 4.118 123.994 5.784C124.81 7.45 125.218 9.524 125.218 12.006V27H119.098V12.567C119.098 10.425 118.622 8.776 117.67 7.62C116.718 6.464 115.307 5.886 113.437 5.886C112.213 5.886 111.108 6.175 110.122 6.753C109.17 7.331 108.405 8.181 107.827 9.303C107.283 10.391 107.011 11.717 107.011 13.281V27H100.891ZM140.289 27.612C137.773 27.612 135.512 27.051 133.506 25.929C131.534 24.773 129.987 23.192 128.865 21.186C127.777 19.146 127.233 16.834 127.233 14.25C127.233 11.564 127.777 9.218 128.865 7.212C129.987 5.172 131.534 3.574 133.506 2.418C135.512 1.262 137.79 0.683998 140.34 0.683998C143.536 0.683998 146.222 1.534 148.398 3.234C150.574 4.9 151.968 7.195 152.58 10.119H146.154C145.814 8.827 145.1 7.807 144.012 7.059C142.958 6.311 141.7 5.937 140.238 5.937C138.98 5.937 137.824 6.26 136.77 6.906C135.75 7.552 134.934 8.487 134.322 9.711C133.744 10.935 133.455 12.414 133.455 14.148C133.455 15.474 133.625 16.647 133.965 17.667C134.305 18.687 134.781 19.554 135.393 20.268C136.039 20.948 136.77 21.475 137.586 21.849C138.402 22.223 139.286 22.41 140.238 22.41C141.224 22.41 142.108 22.257 142.89 21.951C143.706 21.611 144.386 21.118 144.93 20.472C145.508 19.826 145.916 19.061 146.154 18.177H152.58C151.968 21.033 150.574 23.328 148.398 25.062C146.222 26.762 143.519 27.612 140.289 27.612ZM166.947 27.612C164.397 27.612 162.153 27.068 160.215 25.98C158.277 24.858 156.764 23.294 155.676 21.288C154.588 19.282 154.044 16.97 154.044 14.352C154.044 11.632 154.571 9.252 155.625 7.212C156.713 5.172 158.226 3.574 160.164 2.418C162.136 1.262 164.414 0.683998 166.998 0.683998C169.514 0.683998 171.707 1.245 173.577 2.367C175.447 3.489 176.892 5.002 177.912 6.906C178.932 8.776 179.442 10.884 179.442 13.23C179.442 13.57 179.442 13.944 179.442 14.352C179.442 14.76 179.408 15.185 179.34 15.627H158.43V11.7H173.271C173.203 9.83 172.574 8.368 171.384 7.314C170.194 6.226 168.715 5.682 166.947 5.682C165.689 5.682 164.533 5.971 163.479 6.549C162.425 7.127 161.592 7.994 160.98 9.15C160.368 10.272 160.062 11.7 160.062 13.434V14.913C160.062 16.511 160.351 17.888 160.929 19.044C161.541 20.2 162.357 21.084 163.377 21.696C164.431 22.274 165.604 22.563 166.896 22.563C168.324 22.563 169.497 22.257 170.415 21.645C171.367 21.033 172.064 20.217 172.506 19.197H178.728C178.252 20.795 177.47 22.24 176.382 23.532C175.294 24.79 173.951 25.793 172.353 26.541C170.755 27.255 168.953 27.612 166.947 27.612Z" fill="black"/>
</svg>
