<svg width="153" height="28" viewBox="0 0 153 28" fill="none" xmlns="http://www.w3.org/2000/svg">
<path d="M11.668 27.612C9.39 27.612 7.401 27.255 5.701 26.541C4.035 25.793 2.709 24.773 1.723 23.481C0.771 22.155 0.21 20.642 0.0400001 18.942H6.16C6.33 19.656 6.636 20.319 7.078 20.931C7.52 21.509 8.115 21.968 8.863 22.308C9.645 22.648 10.563 22.818 11.617 22.818C12.637 22.818 13.47 22.682 14.116 22.41C14.762 22.104 15.238 21.713 15.544 21.237C15.85 20.761 16.003 20.251 16.003 19.707C16.003 18.891 15.782 18.262 15.34 17.82C14.898 17.378 14.252 17.038 13.402 16.8C12.586 16.528 11.6 16.273 10.444 16.035C9.22 15.797 8.03 15.508 6.874 15.168C5.752 14.794 4.732 14.335 3.814 13.791C2.93 13.247 2.216 12.55 1.672 11.7C1.162 10.85 0.907 9.813 0.907 8.589C0.907 7.093 1.298 5.75 2.08 4.56C2.896 3.37 4.052 2.435 5.548 1.755C7.078 1.041 8.897 0.683998 11.005 0.683998C13.997 0.683998 16.377 1.381 18.145 2.775C19.947 4.135 21.001 6.056 21.307 8.538H15.493C15.323 7.586 14.847 6.855 14.065 6.345C13.283 5.801 12.246 5.529 10.954 5.529C9.628 5.529 8.608 5.784 7.894 6.294C7.214 6.77 6.874 7.416 6.874 8.232C6.874 8.742 7.078 9.218 7.486 9.66C7.928 10.068 8.557 10.425 9.373 10.731C10.189 11.003 11.192 11.275 12.382 11.547C14.286 11.921 15.969 12.363 17.431 12.873C18.893 13.383 20.049 14.131 20.899 15.117C21.749 16.103 22.174 17.497 22.174 19.299C22.208 20.931 21.783 22.376 20.899 23.634C20.049 24.892 18.842 25.878 17.278 26.592C15.714 27.272 13.844 27.612 11.668 27.612ZM34.7933 27.612C32.5153 27.612 30.5263 27.255 28.8263 26.541C27.1603 25.793 25.8343 24.773 24.8483 23.481C23.8963 22.155 23.3353 20.642 23.1653 18.942H29.2853C29.4553 19.656 29.7613 20.319 30.2033 20.931C30.6453 21.509 31.2403 21.968 31.9883 22.308C32.7703 22.648 33.6883 22.818 34.7423 22.818C35.7623 22.818 36.5953 22.682 37.2413 22.41C37.8873 22.104 38.3633 21.713 38.6693 21.237C38.9753 20.761 39.1283 20.251 39.1283 19.707C39.1283 18.891 38.9073 18.262 38.4653 17.82C38.0233 17.378 37.3773 17.038 36.5273 16.8C35.7113 16.528 34.7253 16.273 33.5693 16.035C32.3453 15.797 31.1553 15.508 29.9993 15.168C28.8773 14.794 27.8573 14.335 26.9393 13.791C26.0553 13.247 25.3413 12.55 24.7973 11.7C24.2873 10.85 24.0323 9.813 24.0323 8.589C24.0323 7.093 24.4233 5.75 25.2053 4.56C26.0213 3.37 27.1773 2.435 28.6733 1.755C30.2033 1.041 32.0223 0.683998 34.1303 0.683998C37.1223 0.683998 39.5023 1.381 41.2703 2.775C43.0723 4.135 44.1263 6.056 44.4323 8.538H38.6183C38.4483 7.586 37.9723 6.855 37.1903 6.345C36.4083 5.801 35.3713 5.529 34.0793 5.529C32.7533 5.529 31.7333 5.784 31.0193 6.294C30.3393 6.77 29.9993 7.416 29.9993 8.232C29.9993 8.742 30.2033 9.218 30.6113 9.66C31.0533 10.068 31.6823 10.425 32.4983 10.731C33.3143 11.003 34.3173 11.275 35.5073 11.547C37.4113 11.921 39.0943 12.363 40.5563 12.873C42.0183 13.383 43.1743 14.131 44.0243 15.117C44.8743 16.103 45.2993 17.497 45.2993 19.299C45.3333 20.931 44.9083 22.376 44.0243 23.634C43.1743 24.892 41.9673 25.878 40.4033 26.592C38.8393 27.272 36.9693 27.612 34.7933 27.612ZM59.7036 27.612C57.1536 27.612 54.9096 27.068 52.9716 25.98C51.0336 24.858 49.5206 23.294 48.4326 21.288C47.3446 19.282 46.8006 16.97 46.8006 14.352C46.8006 11.632 47.3276 9.252 48.3816 7.212C49.4696 5.172 50.9826 3.574 52.9206 2.418C54.8926 1.262 57.1706 0.683998 59.7546 0.683998C62.2706 0.683998 64.4636 1.245 66.3336 2.367C68.2036 3.489 69.6486 5.002 70.6686 6.906C71.6886 8.776 72.1986 10.884 72.1986 13.23C72.1986 13.57 72.1986 13.944 72.1986 14.352C72.1986 14.76 72.1646 15.185 72.0966 15.627H51.1866V11.7H66.0276C65.9596 9.83 65.3306 8.368 64.1406 7.314C62.9506 6.226 61.4716 5.682 59.7036 5.682C58.4456 5.682 57.2896 5.971 56.2356 6.549C55.1816 7.127 54.3486 7.994 53.7366 9.15C53.1246 10.272 52.8186 11.7 52.8186 13.434V14.913C52.8186 16.511 53.1076 17.888 53.6856 19.044C54.2976 20.2 55.1136 21.084 56.1336 21.696C57.1876 22.274 58.3606 22.563 59.6526 22.563C61.0806 22.563 62.2536 22.257 63.1716 21.645C64.1236 21.033 64.8206 20.217 65.2626 19.197H71.4846C71.0086 20.795 70.2266 22.24 69.1386 23.532C68.0506 24.79 66.7076 25.793 65.1096 26.541C63.5116 27.255 61.7096 27.612 59.7036 27.612ZM74.2793 27V1.296H79.6853L80.1443 5.58C80.9263 4.084 82.0483 2.894 83.5103 2.01C84.9723 1.126 86.7063 0.683998 88.7123 0.683998C90.7863 0.683998 92.5543 1.126 94.0163 2.01C95.4783 2.86 96.6003 4.118 97.3823 5.784C98.1983 7.45 98.6063 9.524 98.6063 12.006V27H92.4863V12.567C92.4863 10.425 92.0103 8.776 91.0583 7.62C90.1063 6.464 88.6953 5.886 86.8253 5.886C85.6013 5.886 84.4963 6.175 83.5103 6.753C82.5583 7.331 81.7933 8.181 81.2153 9.303C80.6713 10.391 80.3993 11.717 80.3993 13.281V27H74.2793ZM113.678 27.612C111.162 27.612 108.901 27.051 106.895 25.929C104.923 24.773 103.376 23.192 102.254 21.186C101.166 19.146 100.622 16.834 100.622 14.25C100.622 11.564 101.166 9.218 102.254 7.212C103.376 5.172 104.923 3.574 106.895 2.418C108.901 1.262 111.179 0.683998 113.729 0.683998C116.925 0.683998 119.611 1.534 121.787 3.234C123.963 4.9 125.357 7.195 125.969 10.119H119.543C119.203 8.827 118.489 7.807 117.401 7.059C116.347 6.311 115.089 5.937 113.627 5.937C112.369 5.937 111.213 6.26 110.159 6.906C109.139 7.552 108.323 8.487 107.711 9.711C107.133 10.935 106.844 12.414 106.844 14.148C106.844 15.474 107.014 16.647 107.354 17.667C107.694 18.687 108.17 19.554 108.782 20.268C109.428 20.948 110.159 21.475 110.975 21.849C111.791 22.223 112.675 22.41 113.627 22.41C114.613 22.41 115.497 22.257 116.279 21.951C117.095 21.611 117.775 21.118 118.319 20.472C118.897 19.826 119.305 19.061 119.543 18.177H125.969C125.357 21.033 123.963 23.328 121.787 25.062C119.611 26.762 116.908 27.612 113.678 27.612ZM140.335 27.612C137.785 27.612 135.541 27.068 133.603 25.98C131.665 24.858 130.152 23.294 129.064 21.288C127.976 19.282 127.432 16.97 127.432 14.352C127.432 11.632 127.959 9.252 129.013 7.212C130.101 5.172 131.614 3.574 133.552 2.418C135.524 1.262 137.802 0.683998 140.386 0.683998C142.902 0.683998 145.095 1.245 146.965 2.367C148.835 3.489 150.28 5.002 151.3 6.906C152.32 8.776 152.83 10.884 152.83 13.23C152.83 13.57 152.83 13.944 152.83 14.352C152.83 14.76 152.796 15.185 152.728 15.627H131.818V11.7H146.659C146.591 9.83 145.962 8.368 144.772 7.314C143.582 6.226 142.103 5.682 140.335 5.682C139.077 5.682 137.921 5.971 136.867 6.549C135.813 7.127 134.98 7.994 134.368 9.15C133.756 10.272 133.45 11.7 133.45 13.434V14.913C133.45 16.511 133.739 17.888 134.317 19.044C134.929 20.2 135.745 21.084 136.765 21.696C137.819 22.274 138.992 22.563 140.284 22.563C141.712 22.563 142.885 22.257 143.803 21.645C144.755 21.033 145.452 20.217 145.894 19.197H152.116C151.64 20.795 150.858 22.24 149.77 23.532C148.682 24.79 147.339 25.793 145.741 26.541C144.143 27.255 142.341 27.612 140.335 27.612Z" fill="black"/>
</svg>
